HIERARCHY
ROOT Hips
{
  OFFSET 0 89.5177 0.535
  CHANNELS 6 Xposition Yposition Zposition Zrotation Xrotation Yrotation
  JOINT Spine
  {
    OFFSET 12.0259 -0.162855 1.69034e-005
    CHANNELS 3 Zrotation Xrotation Yrotation
    JOINT Spine1
    {
      OFFSET 15.3169 -0.0121922 0
      CHANNELS 3 Zrotation Xrotation Yrotation
      JOINT Spine2
      {
        OFFSET 15.3176 -0.0121908 0
        CHANNELS 3 Zrotation Xrotation Yrotation
        JOINT Neck
        {
          OFFSET 19.9142 1.56338 0
          CHANNELS 3 Zrotation Xrotation Yrotation
          JOINT Head
          {
            OFFSET 6.92651 0 0
            CHANNELS 3 Zrotation Xrotation Yrotation
            End Site
            {
              OFFSET 20.7666 0 0
            }
          }
          JOINT LeftShoulder
          {
            OFFSET -6.20654 0.708824 7.28219
            CHANNELS 3 Zrotation Xrotation Yrotation
            JOINT LeftArm
            {
              OFFSET 14.108 0 -1.52588e-005
              CHANNELS 3 Zrotation Xrotation Yrotation
              JOINT LeftForeArm
              {
                OFFSET 28.5802 0 0
                CHANNELS 3 Zrotation Xrotation Yrotation
                JOINT LeftHand
                {
                  OFFSET 27.092 0 0
                  CHANNELS 3 Zrotation Xrotation Yrotation
                  End Site
                  {
                    OFFSET 9.55928 -0.186424 0.145352
                  }
                }
              }
            }
          }
          JOINT RightShoulder
          {
            OFFSET -6.20654 0.708866 -7.28218
            CHANNELS 3 Zrotation Xrotation Yrotation
            JOINT RightArm
            {
              OFFSET 14.108 0 1.52588e-005
              CHANNELS 3 Zrotation Xrotation Yrotation
              JOINT RightForeArm
              {
                OFFSET 28.5802 0 0
                CHANNELS 3 Zrotation Xrotation Yrotation
                JOINT RightHand
                {
                  OFFSET 27.092 0 0
                  CHANNELS 3 Zrotation Xrotation Yrotation
                  End Site
                  {
                    OFFSET 9.55929 -0.186417 -0.145354
                  }
                }
              }
            }
          }
        }
      }
    }
  }
  JOINT LeftUpLeg
  {
    OFFSET 0.005 -0.535 8.837
    CHANNELS 3 Zrotation Xrotation Yrotation
    JOINT LeftLeg
    {
      OFFSET 39.9035 0 0
      CHANNELS 3 Zrotation Xrotation Yrotation
      JOINT LeftFoot
      {
        OFFSET 39.6689 0 0
        CHANNELS 3 Zrotation Xrotation Yrotation
        JOINT LeftToe
        {
          OFFSET 10.1624 13.6296 0
          CHANNELS 3 Zrotation Xrotation Yrotation
          End Site
          {
            OFFSET 8.38147 0 0
          }
        }
      }
    }
  }
  JOINT RightUpLeg
  {
    OFFSET 0.005 -0.535 -8.837
    CHANNELS 3 Zrotation Xrotation Yrotation
    JOINT RightLeg
    {
      OFFSET 39.9035 0 0
      CHANNELS 3 Zrotation Xrotation Yrotation
      JOINT RightFoot
      {
        OFFSET 39.6689 0 0
        CHANNELS 3 Zrotation Xrotation Yrotation
        JOINT RightToe
        {
          OFFSET 10.1624 13.6296 0
          CHANNELS 3 Zrotation Xrotation Yrotation
          End Site
          {
            OFFSET 8.38147 0 0
          }
        }
      }
    }
  }
}
MOTION
Frames:	7
Frame Time:	0.0333333
537.601 89.8245 -179.533 153.744 -81.9616 62.1955 -1.81615 -0.264691 -0.327874 -3.63385 -0.518393 -0.663791 -3.63385 -0.518392 -0.6638 -8.30708e-012 -9.0191e-006 -5.27751e-005 19.5926 7.95891 -4.76533 178.075 -13.378 -98.2634 -20.562 -49.5475 -3.14971 -4.64566e-006 -3.18055e-015 -1.78906e-015 -40.401 -20.0561 -39.069 178.573 7.18724 101.262 77.4188 68.7324 -87.7764 -0.846252 -4.96962e-017 -1.59028e-015 -35.0509 13.3157 23.7174 -9.4896 3.20963 -178.422 -19.2564 -7.95139e-016 -3.97569e-016 21.4209 4.28858 -8.72248 90 3.32964e-015 -7.95139e-016 -11.1731 -5.56509 -179.143 -19.017 -5.96354e-016 -0 12.7186 -1.12498 2.23241 90 -2.98177e-016 2.98177e-016 
537.621 89.8237 -179.567 153.417 -81.9106 61.8834 -1.82064 -0.268423 -0.312384 -3.64276 -0.526321 -0.632956 -3.64276 -0.526321 -0.632966 -8.30708e-012 -9.0191e-006 -5.27751e-005 19.6295 7.9283 -4.72141 178.132 -13.3887 -98.0167 -20.6813 -49.541 -3.34799 -4.61388e-006 0 -5.96354e-016 -40.3594 -20.0528 -38.9903 178.521 7.67667 100.937 78.3897 69.6131 -89.862 -2.33867e-011 4.96962e-017 -0 -38.4981 15.3797 28.2782 -9.48847 3.13954 -178.427 -19.2332 0 -3.97569e-016 21.4317 4.29417 -8.73431 90 -9.19379e-016 3.97569e-016 -11.1782 -5.58512 -179.134 -19.0325 3.97569e-016 9.93923e-017 12.7024 -1.07728 2.13727 90 5.09386e-016 1.98785e-016 
537.652 89.8243 -179.596 152.772 -81.8722 61.2515 -1.82053 -0.271173 -0.329129 -3.63476 -0.531312 -0.666506 -3.63476 -0.531312 -0.666516 -8.30748e-012 -9.0191e-006 -5.27751e-005 19.6524 7.92978 -4.68243 178.075 -13.371 -98.2689 -20.475 -49.8489 -3.02326 -4.58304e-006 0 1.98785e-016 -40.479 -19.9116 -39.0168 178.588 7.22148 101.098 76.1217 68.6994 -86.5592 -0.96136 -9.93923e-017 -7.95139e-016 -34.7518 13.4826 23.6841 -9.48426 3.05784 -178.425 -19.2597 -3.97569e-015 -7.95139e-016 21.4165 4.29891 -8.7436 90 -1.93815e-015 -7.95139e-016 -11.1631 -5.62711 -179.115 -19.0509 -5.96354e-016 -2.48481e-016 12.6532 -1.01587 2.01465 90 -6.52262e-016 -0 
537.666 89.8245 -179.637 152.325 -81.8431 60.8135 -1.82009 -0.275181 -0.334673 -3.62649 -0.530139 -0.677558 -3.62649 -0.530139 -0.677567 -8.30788e-012 -9.0191e-006 -5.27751e-005 19.6287 7.93992 -4.69537 178.055 -13.4039 -98.335 -20.412 -49.7502 -2.91499 -4.55316e-006 0 -7.95139e-016 -40.4297 -19.9793 -39.0109 178.582 7.24787 101.101 76.5711 68.722 -87.0019 -0.790899 0 7.95139e-016 -34.9321 13.5792 23.7635 -9.44115 2.99911 -178.431 -19.2266 -1.59028e-015 -3.97569e-016 21.4264 4.29977 -8.74579 90 7.20594e-016 -7.95139e-016 -11.1361 -5.65868 -179.125 -19.0836 3.97569e-016 9.93923e-017 12.73 -1.00808 1.99942 90 9.25591e-016 9.93923e-017 
537.69 89.824 -179.672 151.722 -81.7719 60.2008 -1.81954 -0.279706 -0.333999 -3.6284 -0.539583 -0.676364 -3.6284 -0.539583 -0.676373 -8.30748e-012 -9.0191e-006 -5.27751e-005 19.6035 7.97261 -4.74085 178.056 -13.4032 -98.3303 -20.4924 -49.8217 -2.9843 -4.52421e-006 3.18055e-015 -7.95139e-016 -40.4322 -19.8894 -38.9295 178.582 7.23097 101.123 76.0595 68.6096 -86.4522 -0.896082 -9.93923e-017 -0 -34.9561 13.6 23.9404 -9.44352 2.98014 -178.393 -19.2072 -7.95139e-016 -0 21.4445 4.35776 -8.86551 90 -4.47266e-016 -7.95139e-016 -11.1182 -5.69567 -179.089 -19.0616 0 -4.96962e-017 12.6544 -0.94732 1.87813 90 -5.59082e-016 -0 
537.708 89.8248 -179.709 151.315 -81.7045 59.8252 -1.81915 -0.283404 -0.349179 -3.63518 -0.541146 -0.706765 -3.63518 -0.541145 -0.706775 -8.30828e-012 -9.0191e-006 -5.27751e-005 19.5169 7.98483 -4.70908 178.044 -13.3752 -98.3987 -20.3705 -49.5139 -2.92495 -4.4962e-006 -3.18055e-015 -0 -40.4458 -20.0883 -39.1426 178.588 7.20562 101.118 75.8543 68.5612 -86.177 -0.902172 0 7.95139e-016 -35.0511 13.594 24.4164 -9.41362 2.80512 -178.448 -19.1253 -1.59028e-015 -7.95139e-016 21.3575 4.29088 -8.72707 90 2.98177e-015 1.19271e-015 -11.1013 -5.72798 -179.109 -19.0258 0 9.93923e-017 12.6126 -0.939246 1.86195 90 6.27414e-016 -0 
537.743 89.8246 -179.734 150.872 -81.6519 59.3703 -1.81891 -0.284936 -0.339168 -3.63954 -0.558496 -0.687029 -3.63954 -0.558496 -0.687038 -8.30748e-012 -9.0191e-006 -5.27751e-005 19.496 7.9945 -4.7776 178.063 -13.358 -98.3256 -20.3849 -49.4021 -3.06007 -4.4691e-006 -1.27222e-014 -1.98785e-016 -40.406 -20.1146 -39.1124 178.604 7.0985 101.159 75.2702 68.5654 -85.4838 -0.912319 1.98785e-016 -0 -34.9167 13.6805 24.3553 -9.41325 2.80922 -178.398 -19.1023 0 -3.97569e-016 21.3859 4.35032 -8.84998 90 -1.66482e-015 -0 -11.0823 -5.82531 -179.085 -19.0212 -1.98785e-016 9.93923e-017 12.6859 -0.935004 1.85373 90 -1.61513e-016 -9.93923e-017 
